<?xml version="1.0" encoding="UTF-8"?><svg id="_레이어_2" xmlns="http://www.w3.org/2000/svg" viewBox="0 0 741.73 75.32"><g id="_레이어_1-2"><path d="M0,73.2V0h18c7.53,0,13.83,1.43,18.9,4.3,5.07,2.87,8.88,7,11.45,12.4,2.57,5.4,3.85,11.93,3.85,19.6s-1.28,14.27-3.85,19.8c-2.57,5.53-6.35,9.77-11.35,12.7-5,2.93-11.2,4.4-18.6,4.4H0ZM8.3,66.3h9c5.93,0,10.85-1.18,14.75-3.55,3.9-2.37,6.82-5.82,8.75-10.35,1.93-4.53,2.9-9.9,2.9-16.1s-.97-11.5-2.9-15.9c-1.93-4.4-4.85-7.77-8.75-10.1-3.9-2.33-8.82-3.5-14.75-3.5h-9v59.5Z"/><path d="M79.8,74.5c-2.94,0-5.59-.58-7.95-1.75-2.37-1.17-4.25-2.88-5.65-5.15-1.4-2.27-2.1-5.03-2.1-8.3,0-5.93,2.68-10.46,8.05-13.6,5.37-3.13,13.85-5.33,25.45-6.6.07-2.47-.22-4.8-.85-7-.63-2.2-1.79-4-3.45-5.4-1.67-1.4-4.07-2.1-7.2-2.1s-6.3.63-9.1,1.9c-2.8,1.27-5.23,2.63-7.3,4.1l-3.2-5.8c1.53-1,3.37-2.03,5.5-3.1,2.13-1.07,4.5-1.98,7.1-2.75,2.6-.77,5.37-1.15,8.3-1.15,4.33,0,7.85.93,10.55,2.8,2.7,1.87,4.67,4.43,5.9,7.7,1.23,3.27,1.85,7.07,1.85,11.4v33.5h-6.6l-.8-6.6h-.3c-2.6,2.2-5.43,4.07-8.5,5.6s-6.3,2.3-9.7,2.3ZM82,67.9c2.73,0,5.33-.65,7.8-1.95,2.46-1.3,5.06-3.15,7.8-5.55v-15.8c-6.33.73-11.38,1.73-15.15,3-3.77,1.27-6.45,2.83-8.05,4.7-1.6,1.87-2.4,4.04-2.4,6.5,0,3.27.96,5.6,2.9,7,1.93,1.4,4.3,2.1,7.1,2.1Z"/><path d="M124.1,73.2V0h8.3v66.2h32.4v7h-40.7Z"/><path d="M177.8,73.2V0h8.3v73.2h-8.3Z"/><path d="M224.12,61.96c2.19,3.2,5.27,5.61,9.24,7.24,3.97,1.63,8.55,2.55,13.72,2.76,2.08.05,4.65.09,7.72.12,3.07.03,6.29.01,9.68-.04,3.39-.05,6.63-.11,9.72-.16,3.09-.05,5.68-.13,7.76-.24-.11.16-.23.39-.36.68-.13.29-.25.6-.36.92-.11.32-.19.61-.24.88-2.03.05-4.52.11-7.48.16-2.96.05-6.07.09-9.32.12-3.25.03-6.37.03-9.36,0-2.99-.03-5.52-.07-7.6-.12-5.6-.21-10.39-1.15-14.36-2.8-3.97-1.65-7.27-4.08-9.88-7.28-1.92,1.87-3.89,3.73-5.92,5.6-2.03,1.87-4.05,3.71-6.08,5.52l-1.6-2.24c1.87-1.49,3.92-3.23,6.16-5.2,2.24-1.97,4.37-3.95,6.4-5.92h2.16ZM224.12,41.8v21.44h-2.4v-19.12h-11.92v-2.32h14.32ZM210.44,23.24l1.6-1.68c1.81.75,3.64,1.65,5.48,2.72,1.84,1.07,3.57,2.17,5.2,3.32,1.63,1.15,2.92,2.25,3.88,3.32l-1.6,1.84c-.96-1.07-2.24-2.19-3.84-3.36-1.6-1.17-3.33-2.29-5.2-3.36-1.87-1.07-3.71-2-5.52-2.8ZM213.4,6.84l1.6-1.6c1.71.85,3.44,1.84,5.2,2.96s3.39,2.27,4.88,3.44c1.49,1.17,2.69,2.29,3.6,3.36l-1.6,1.68c-.91-1.07-2.11-2.2-3.6-3.4-1.49-1.2-3.11-2.36-4.84-3.48-1.73-1.12-3.48-2.11-5.24-2.96ZM228.52,21.56h52.64v2.4h-52.64v-2.4ZM229.08,54.84h51.6v2.32h-51.6v-2.32ZM230.92,34.84h49.04v2.32h-49.04v-2.32ZM233.72,44.28h42.72v2.4h-42.72v-2.4ZM233.88,11.24h41.36v2.32h-41.36v-2.32ZM239.64,25.56l2.08-.8c1.07,1.33,2.04,2.84,2.92,4.52.88,1.68,1.48,3.16,1.8,4.44l-2.24.88c-.27-1.23-.83-2.69-1.68-4.4-.85-1.71-1.81-3.25-2.88-4.64ZM253,3.72h2.4v19.44h-2.4V3.72ZM253,35.56h2.4v31.44h-2.4v-31.44ZM266.6,24.36l2.24,1.04c-.8,1.6-1.65,3.25-2.56,4.96-.91,1.71-1.79,3.17-2.64,4.4l-1.76-.96c.8-1.28,1.65-2.84,2.56-4.68.91-1.84,1.63-3.43,2.16-4.76Z"/><path d="M289.48,64.12c2.03-.64,4.33-1.37,6.92-2.2,2.59-.83,5.33-1.75,8.24-2.76,2.91-1.01,5.85-2.03,8.84-3.04l.4,2.4c-4.21,1.39-8.39,2.8-12.52,4.24-4.13,1.44-7.83,2.72-11.08,3.84l-.8-2.48ZM290.28,9.96h23.36v2.4h-23.36v-2.4ZM291.16,33.24h21.52v2.4h-21.52v-2.4ZM301.32,10.92h2.4v50l-2.4.8V10.92ZM310.36,70.76h52.16v2.32h-52.16v-2.32ZM317.08,54.04h42.72v2.32h-42.72v-2.32ZM318.52,7.8h39.92v34.32h-39.92V7.8ZM320.84,10.12v13.6h35.2v-13.6h-35.2ZM320.84,26.04v13.76h35.2v-13.76h-35.2ZM337.08,9.32h2.4v62.32h-2.4V9.32Z"/><path d="M378.92,47.63v-14.52h3.26c1.51,0,2.74.3,3.7.9.96.6,1.67,1.44,2.13,2.52s.69,2.35.69,3.8-.23,2.71-.69,3.81c-.46,1.1-1.17,1.96-2.13,2.57s-2.19.92-3.68.92h-3.28ZM379.65,46.97h2.42c1.37,0,2.49-.29,3.35-.86s1.49-1.36,1.89-2.37.6-2.14.6-3.41-.2-2.41-.6-3.4c-.4-.99-1.03-1.76-1.89-2.32-.86-.56-1.98-.84-3.35-.84h-2.42v13.2Z"/><path d="M395.93,47.89c-.88,0-1.69-.22-2.42-.66-.73-.44-1.32-1.07-1.75-1.89-.43-.82-.65-1.8-.65-2.95,0-.87.12-1.64.37-2.32.25-.68.59-1.26,1.02-1.75.43-.49.92-.86,1.46-1.11.54-.25,1.1-.38,1.69-.38.81,0,1.52.19,2.11.56.59.37,1.05.92,1.38,1.65s.49,1.61.49,2.65v.33c0,.11-.01.24-.04.39h-7.72c0,.92.17,1.74.51,2.47.34.73.82,1.3,1.43,1.72s1.33.63,2.16.63c.6,0,1.13-.09,1.6-.26.47-.17.9-.41,1.3-.7l.32.62c-.4.24-.85.47-1.34.68-.49.21-1.13.32-1.92.32ZM391.87,41.75h7.06c0-1.43-.3-2.49-.9-3.2-.6-.71-1.39-1.06-2.38-1.06-.63,0-1.21.17-1.76.51-.55.34-1,.83-1.36,1.46-.36.63-.58,1.4-.66,2.29Z"/><path d="M406.51,47.89c-.49,0-1.02-.12-1.59-.36-.57-.24-1.1-.56-1.59-.96h-.06l-.1,1.06h-.6v-15.88h.72v4.68l-.06,2.12c.55-.47,1.14-.87,1.78-1.21s1.29-.51,1.94-.51c.96,0,1.75.22,2.38.67.63.45,1.09,1.07,1.4,1.87s.46,1.75.46,2.84c0,1.19-.22,2.21-.65,3.06-.43.85-1,1.5-1.71,1.95s-1.48.67-2.32.67ZM406.57,47.23c.75,0,1.41-.21,1.99-.64s1.04-1.02,1.37-1.78c.33-.76.5-1.63.5-2.6,0-.89-.12-1.7-.35-2.41-.23-.71-.61-1.28-1.12-1.69-.51-.41-1.2-.62-2.07-.62-.53,0-1.1.16-1.71.47-.61.31-1.24.76-1.89,1.35v6.5c.6.52,1.19.89,1.78,1.1.59.21,1.09.32,1.5.32Z"/><path d="M414.81,34.43c-.21,0-.39-.07-.52-.22s-.2-.35-.2-.6c0-.23.07-.41.2-.55.13-.14.31-.21.52-.21.2,0,.37.07.51.21.14.14.21.32.21.55,0,.25-.07.45-.21.6-.14.15-.31.22-.51.22ZM414.43,47.63v-10.54h.72v10.54h-.72Z"/><path d="M421.59,47.89c-.55,0-1.05-.1-1.51-.3s-.83-.51-1.11-.93c-.28-.42-.42-.96-.42-1.63,0-1.17.55-2.06,1.66-2.67,1.11-.61,2.85-1.04,5.22-1.31.03-.57-.02-1.13-.15-1.67-.13-.54-.38-.99-.75-1.35-.37-.36-.93-.54-1.66-.54s-1.42.15-2.02.44c-.6.29-1.07.57-1.42.84l-.36-.58c.23-.16.53-.35.91-.56.38-.21.82-.4,1.32-.56.5-.16,1.04-.24,1.61-.24.83,0,1.48.18,1.95.55.47.37.81.85,1,1.45.19.6.29,1.26.29,1.98v6.82h-.6l-.1-1.4h-.06c-.53.44-1.12.83-1.77,1.16-.65.33-1.32.5-2.03.5ZM421.65,47.23c.63,0,1.24-.15,1.84-.45.6-.3,1.25-.74,1.94-1.33v-3.78c-1.52.16-2.73.39-3.63.69-.9.3-1.54.67-1.93,1.1-.39.43-.58.95-.58,1.55,0,.81.23,1.39.7,1.72.47.33,1.02.5,1.66.5Z"/><path d="M432.53,47.89c-.79,0-1.51-.14-2.16-.43-.65-.29-1.21-.62-1.68-1.01l.46-.58c.44.37.93.69,1.46.96.53.27,1.19.4,1.96.4.88,0,1.54-.22,1.99-.66.45-.44.67-.96.67-1.56,0-.47-.13-.85-.4-1.16-.27-.31-.6-.56-1.01-.76-.41-.2-.82-.37-1.23-.52-.53-.2-1.05-.41-1.56-.64-.51-.23-.93-.53-1.26-.9s-.5-.86-.5-1.46c0-.49.13-.95.38-1.36.25-.41.63-.75,1.12-1s1.1-.38,1.82-.38c.53,0,1.06.1,1.58.3s.97.46,1.34.78l-.42.54c-.35-.27-.72-.49-1.12-.68-.4-.19-.87-.28-1.42-.28-.87,0-1.51.21-1.92.63-.41.42-.62.89-.62,1.41,0,.41.12.76.35,1.03.23.27.54.5.92.68.38.18.78.35,1.19.51.43.16.85.32,1.26.49.41.17.79.36,1.12.59.33.23.6.51.81.85.21.34.31.77.31,1.29s-.13,1-.4,1.45c-.27.45-.65.8-1.16,1.07s-1.13.4-1.88.4Z"/><path d="M439.25,34.43c-.21,0-.39-.07-.52-.22s-.2-.35-.2-.6c0-.23.07-.41.2-.55.13-.14.31-.21.52-.21.2,0,.37.07.51.21.14.14.21.32.21.55,0,.25-.07.45-.21.6-.14.15-.31.22-.51.22ZM438.87,47.63v-10.54h.72v10.54h-.72Z"/><path d="M443.77,47.63v-10.54h.6l.12,1.68h.04c.55-.55,1.11-1.01,1.68-1.38.57-.37,1.23-.56,1.96-.56,1.08,0,1.88.33,2.4.99.52.66.78,1.67.78,3.03v6.78h-.72v-6.68c0-1.16-.2-2.03-.59-2.6-.39-.57-1.04-.86-1.95-.86-.65,0-1.25.17-1.79.52s-1.14.87-1.81,1.56v8.06h-.72Z"/><path d="M458.77,52.77c-.89,0-1.66-.12-2.31-.37-.65-.25-1.14-.59-1.49-1.03-.35-.44-.52-.95-.52-1.54,0-.47.14-.93.43-1.39s.68-.86,1.17-1.21v-.08c-.27-.16-.49-.38-.67-.66-.18-.28-.27-.62-.27-1.02,0-.48.14-.88.41-1.21.27-.33.52-.57.75-.73v-.08c-.33-.29-.64-.69-.92-1.19-.28-.5-.42-1.07-.42-1.71,0-.72.16-1.36.48-1.92.32-.56.76-1,1.31-1.32.55-.32,1.16-.48,1.83-.48.31,0,.58.03.81.08.23.05.42.11.57.18h3.52v.66h-2.52c.37.31.67.7.9,1.18.23.48.34,1.02.34,1.62,0,.69-.16,1.32-.48,1.89-.32.57-.75,1.02-1.3,1.35s-1.16.5-1.84.5c-.29,0-.6-.04-.93-.13-.33-.09-.61-.2-.85-.35-.24.19-.45.41-.64.67-.19.26-.28.57-.28.93,0,.4.14.74.42,1.03.28.29.83.43,1.64.43h2.34c1.16,0,2.01.19,2.56.57.55.38.82.98.82,1.79,0,.59-.2,1.15-.6,1.7-.4.55-.96.99-1.69,1.33-.73.34-1.58.51-2.57.51ZM458.81,52.13c.84,0,1.56-.14,2.17-.42s1.08-.64,1.41-1.07c.33-.43.5-.88.5-1.33,0-.63-.22-1.07-.65-1.33-.43-.26-1.06-.39-1.89-.39h-2.4c-.07,0-.22-.01-.47-.04-.25-.03-.52-.07-.81-.14-.52.35-.89.73-1.12,1.15s-.34.82-.34,1.21c0,.69.31,1.26.94,1.7.63.44,1.51.66,2.66.66ZM458.55,43.63c.52,0,1-.13,1.43-.39.43-.26.78-.62,1.05-1.09.27-.47.4-1,.4-1.6s-.13-1.17-.39-1.63c-.26-.46-.61-.81-1.04-1.06-.43-.25-.92-.37-1.45-.37s-1,.12-1.43.37c-.43.25-.78.6-1.04,1.05s-.39,1-.39,1.64c0,.6.13,1.13.4,1.6.27.47.62.83,1.05,1.09.43.26.9.39,1.41.39Z"/><path d="M472.63,47.89c-.55,0-1.05-.1-1.51-.3s-.83-.51-1.11-.93c-.28-.42-.42-.96-.42-1.63,0-1.17.55-2.06,1.66-2.67,1.11-.61,2.85-1.04,5.22-1.31.03-.57-.02-1.13-.15-1.67s-.38-.99-.75-1.35c-.37-.36-.93-.54-1.66-.54s-1.42.15-2.02.44c-.6.29-1.07.57-1.42.84l-.36-.58c.23-.16.53-.35.91-.56.38-.21.82-.4,1.32-.56.5-.16,1.04-.24,1.61-.24.83,0,1.48.18,1.95.55.47.37.81.85,1,1.45.19.6.29,1.26.29,1.98v6.82h-.6l-.1-1.4h-.06c-.53.44-1.12.83-1.77,1.16s-1.32.5-2.03.5ZM472.69,47.23c.63,0,1.24-.15,1.84-.45.6-.3,1.25-.74,1.94-1.33v-3.78c-1.52.16-2.73.39-3.63.69-.9.3-1.54.67-1.93,1.1s-.58.95-.58,1.55c0,.81.23,1.39.7,1.72.47.33,1.02.5,1.66.5Z"/><path d="M481.09,47.63v-10.54h.6l.12,1.68h.04c.55-.55,1.11-1.01,1.68-1.38.57-.37,1.23-.56,1.96-.56,1.08,0,1.88.33,2.4.99.52.66.78,1.67.78,3.03v6.78h-.72v-6.68c0-1.16-.2-2.03-.59-2.6-.39-.57-1.04-.86-1.95-.86-.65,0-1.25.17-1.79.52s-1.14.87-1.81,1.56v8.06h-.72Z"/><path d="M496.13,47.89c-.88,0-1.65-.21-2.3-.63s-1.16-1.04-1.52-1.86c-.36-.82-.54-1.82-.54-3.01s.22-2.12.65-2.95c.43-.83,1.01-1.48,1.72-1.93s1.5-.68,2.35-.68c.64,0,1.21.11,1.7.34s1.01.55,1.54.98l-.06-1.98v-4.42h.72v15.88h-.6l-.1-1.4h-.04c-.44.44-.95.83-1.54,1.16-.59.33-1.25.5-1.98.5ZM496.19,47.23c.61,0,1.2-.16,1.77-.48.57-.32,1.14-.77,1.71-1.34v-6.48c-.57-.52-1.12-.89-1.63-1.11-.51-.22-1.04-.33-1.59-.33-.73,0-1.4.22-1.99.66-.59.44-1.06,1.03-1.41,1.77s-.52,1.56-.52,2.47c0,.96.14,1.8.43,2.53.29.73.7,1.29,1.25,1.7.55.41,1.21.61,1.98.61Z"/><path d="M509.09,47.63v-14.52h.74v13.86h6.8v.66h-7.54Z"/><path d="M521.41,47.89c-.55,0-1.05-.1-1.51-.3s-.83-.51-1.11-.93c-.28-.42-.42-.96-.42-1.63,0-1.17.55-2.06,1.66-2.67,1.11-.61,2.85-1.04,5.22-1.31.03-.57-.02-1.13-.15-1.67s-.38-.99-.75-1.35c-.37-.36-.93-.54-1.66-.54s-1.42.15-2.02.44c-.6.29-1.07.57-1.42.84l-.36-.58c.23-.16.53-.35.91-.56.38-.21.82-.4,1.32-.56.5-.16,1.04-.24,1.61-.24.83,0,1.48.18,1.95.55.47.37.81.85,1,1.45.19.6.29,1.26.29,1.98v6.82h-.6l-.1-1.4h-.06c-.53.44-1.12.83-1.77,1.16s-1.32.5-2.03.5ZM521.47,47.23c.63,0,1.24-.15,1.84-.45.6-.3,1.25-.74,1.94-1.33v-3.78c-1.52.16-2.73.39-3.63.69-.9.3-1.54.67-1.93,1.1s-.58.95-.58,1.55c0,.81.23,1.39.7,1.72.47.33,1.02.5,1.66.5Z"/><path d="M529.25,52.51c-.17,0-.35-.02-.54-.06-.19-.04-.35-.09-.48-.16l.18-.66c.11.05.24.1.4.13s.32.05.48.05c.67,0,1.23-.28,1.68-.85.45-.57.83-1.27,1.12-2.11l.3-.98-4.36-10.78h.8l2.66,6.88c.17.45.36.94.57,1.47.21.53.41,1.02.61,1.49h.1c.17-.47.35-.96.52-1.49.17-.53.33-1.02.48-1.47l2.36-6.88h.74l-4.2,12.02c-.17.55-.41,1.08-.72,1.6-.31.52-.68.95-1.12,1.29-.44.34-.97.51-1.58.51Z"/><path d="M543.73,47.63v-14.52h.74v14.52h-.74Z"/><path d="M548.77,47.63v-10.54h.6l.12,1.68h.04c.55-.55,1.11-1.01,1.68-1.38.57-.37,1.23-.56,1.96-.56,1.08,0,1.88.33,2.4.99.52.66.78,1.67.78,3.03v6.78h-.72v-6.68c0-1.16-.2-2.03-.59-2.6-.39-.57-1.04-.86-1.95-.86-.65,0-1.25.17-1.79.52s-1.14.87-1.81,1.56v8.06h-.72Z"/><path d="M559.01,37.75v-.56l1.46-.1h3.2v.66h-4.66ZM560.47,47.63v-13.1c0-.69.1-1.26.29-1.71.19-.45.47-.78.84-1,.37-.22.8-.33,1.31-.33.23,0,.47.03.72.09.25.06.51.14.76.25l-.22.62c-.43-.21-.85-.32-1.28-.32-.6,0-1.04.22-1.31.66-.27.44-.41,1.05-.41,1.84v13h-.7Z"/><path d="M569.49,47.89c-.84,0-1.62-.22-2.33-.65-.71-.43-1.28-1.06-1.71-1.88-.43-.82-.64-1.81-.64-2.97s.21-2.19.64-3.02c.43-.83,1-1.46,1.71-1.89.71-.43,1.49-.65,2.33-.65.63,0,1.22.12,1.79.37.57.25,1.07.61,1.5,1.08.43.47.77,1.06,1.02,1.75s.37,1.48.37,2.36c0,1.16-.22,2.15-.65,2.97-.43.82-1,1.45-1.71,1.88-.71.43-1.48.65-2.32.65ZM569.49,47.23c.75,0,1.42-.2,2.01-.61.59-.41,1.06-.97,1.41-1.7s.52-1.57.52-2.53-.17-1.83-.52-2.56-.82-1.31-1.41-1.72c-.59-.41-1.26-.62-2.01-.62s-1.42.21-2.01.62c-.59.41-1.06.99-1.4,1.72s-.51,1.59-.51,2.56.17,1.8.51,2.53.81,1.29,1.4,1.7c.59.41,1.26.61,2.01.61Z"/><path d="M577.45,47.63v-10.54h.6l.12,1.98h.04c.35-.64.77-1.17,1.28-1.6s1.07-.64,1.7-.64c.19,0,.36.01.52.04.16.03.33.09.5.18l-.18.66c-.17-.07-.32-.11-.44-.14-.12-.03-.29-.04-.5-.04-.47,0-.97.21-1.5.63s-1.01,1.15-1.42,2.19v7.28h-.72Z"/><path d="M584.23,47.63v-10.54h.6l.12,1.68h.04c.48-.55,1.01-1.01,1.6-1.38.59-.37,1.17-.56,1.74-.56.87,0,1.52.2,1.97.6.45.4.76.93.93,1.6.63-.68,1.24-1.22,1.83-1.61.59-.39,1.19-.59,1.79-.59,1.03,0,1.8.33,2.33.99.53.66.79,1.67.79,3.03v6.78h-.7v-6.68c0-1.16-.2-2.03-.61-2.6-.41-.57-1.04-.86-1.89-.86-.52,0-1.05.17-1.58.52s-1.11.87-1.74,1.56v8.06h-.7v-6.68c0-1.16-.2-2.03-.6-2.6-.4-.57-1.03-.86-1.88-.86-.51,0-1.04.17-1.59.52s-1.13.87-1.73,1.56v8.06h-.72Z"/><path d="M604.27,47.89c-.55,0-1.05-.1-1.51-.3s-.83-.51-1.11-.93c-.28-.42-.42-.96-.42-1.63,0-1.17.55-2.06,1.66-2.67,1.11-.61,2.85-1.04,5.22-1.31.03-.57-.02-1.13-.15-1.67s-.38-.99-.75-1.35c-.37-.36-.93-.54-1.66-.54s-1.42.15-2.02.44c-.6.29-1.07.57-1.42.84l-.36-.58c.23-.16.53-.35.91-.56.38-.21.82-.4,1.32-.56.5-.16,1.04-.24,1.61-.24.83,0,1.48.18,1.95.55.47.37.81.85,1,1.45.19.6.29,1.26.29,1.98v6.82h-.6l-.1-1.4h-.06c-.53.44-1.12.83-1.77,1.16s-1.32.5-2.03.5ZM604.33,47.23c.63,0,1.24-.15,1.84-.45.6-.3,1.25-.74,1.94-1.33v-3.78c-1.52.16-2.73.39-3.63.69-.9.3-1.54.67-1.93,1.1s-.58.95-.58,1.55c0,.81.23,1.39.7,1.72.47.33,1.02.5,1.66.5Z"/><path d="M615.23,47.89c-.65,0-1.16-.13-1.52-.38-.36-.25-.61-.61-.75-1.07-.14-.46-.21-1-.21-1.61v-7.08h-1.68v-.56l1.68-.1.08-3.08h.62v3.08h3.12v.66h-3.12v7.18c0,.68.11,1.23.34,1.66s.73.64,1.5.64c.2,0,.43-.03.68-.1.25-.07.47-.15.66-.24l.24.6c-.31.11-.61.2-.91.28s-.54.12-.73.12Z"/><path d="M619.57,34.43c-.21,0-.39-.07-.52-.22-.13-.15-.2-.35-.2-.6,0-.23.07-.41.2-.55.13-.14.31-.21.52-.21.2,0,.37.07.51.21.14.14.21.32.21.55,0,.25-.07.45-.21.6-.14.15-.31.22-.51.22ZM619.19,47.63v-10.54h.72v10.54h-.72Z"/><path d="M627.89,47.89c-.89,0-1.7-.22-2.41-.65-.71-.43-1.28-1.06-1.69-1.88-.41-.82-.62-1.81-.62-2.97s.22-2.19.66-3.02c.44-.83,1.02-1.46,1.74-1.89.72-.43,1.5-.65,2.34-.65.72,0,1.33.14,1.82.41.49.27.91.58,1.26.91l-.46.52c-.35-.33-.73-.61-1.16-.84s-.91-.34-1.46-.34c-.75,0-1.42.21-2.02.62-.6.41-1.08.99-1.43,1.72s-.53,1.59-.53,2.56.17,1.8.5,2.53c.33.73.8,1.29,1.39,1.7.59.41,1.29.61,2.09.61.59,0,1.13-.12,1.62-.37.49-.25.93-.54,1.3-.89l.42.52c-.44.39-.94.72-1.5.99-.56.27-1.18.41-1.86.41Z"/><path d="M636.41,47.89c-.79,0-1.51-.14-2.16-.43-.65-.29-1.21-.62-1.68-1.01l.46-.58c.44.37.93.69,1.46.96s1.19.4,1.96.4c.88,0,1.54-.22,1.99-.66.45-.44.67-.96.67-1.56,0-.47-.13-.85-.4-1.16-.27-.31-.6-.56-1.01-.76-.41-.2-.82-.37-1.23-.52-.53-.2-1.05-.41-1.56-.64-.51-.23-.93-.53-1.26-.9-.33-.37-.5-.86-.5-1.46,0-.49.13-.95.38-1.36.25-.41.63-.75,1.12-1,.49-.25,1.1-.38,1.82-.38.53,0,1.06.1,1.58.3.52.2.97.46,1.34.78l-.42.54c-.35-.27-.72-.49-1.12-.68-.4-.19-.87-.28-1.42-.28-.87,0-1.51.21-1.92.63s-.62.89-.62,1.41c0,.41.12.76.35,1.03.23.27.54.5.92.68.38.18.78.35,1.19.51.43.16.85.32,1.26.49.41.17.79.36,1.12.59.33.23.6.51.81.85s.31.77.31,1.29-.13,1-.4,1.45c-.27.45-.65.8-1.16,1.07s-1.13.4-1.88.4Z"/><path d="M647.25,47.63v-14.52h.74v13.86h6.8v.66h-7.54Z"/><path d="M659.57,47.89c-.55,0-1.05-.1-1.51-.3s-.83-.51-1.11-.93c-.28-.42-.42-.96-.42-1.63,0-1.17.55-2.06,1.66-2.67,1.11-.61,2.85-1.04,5.22-1.31.03-.57-.02-1.13-.15-1.67s-.38-.99-.75-1.35c-.37-.36-.93-.54-1.66-.54s-1.42.15-2.02.44c-.6.29-1.07.57-1.42.84l-.36-.58c.23-.16.53-.35.91-.56.38-.21.82-.4,1.32-.56.5-.16,1.04-.24,1.61-.24.83,0,1.48.18,1.95.55.47.37.81.85,1,1.45.19.6.29,1.26.29,1.98v6.82h-.6l-.1-1.4h-.06c-.53.44-1.12.83-1.77,1.16s-1.32.5-2.03.5ZM659.63,47.23c.63,0,1.24-.15,1.84-.45.6-.3,1.25-.74,1.94-1.33v-3.78c-1.52.16-2.73.39-3.63.69-.9.3-1.54.67-1.93,1.1s-.58.95-.58,1.55c0,.81.23,1.39.7,1.72.47.33,1.02.5,1.66.5Z"/><path d="M671.97,47.89c-.49,0-1.02-.12-1.59-.36-.57-.24-1.1-.56-1.59-.96h-.06l-.1,1.06h-.6v-15.88h.72v4.68l-.06,2.12c.55-.47,1.14-.87,1.78-1.21s1.29-.51,1.94-.51c.96,0,1.75.22,2.38.67.63.45,1.09,1.07,1.4,1.87.31.8.46,1.75.46,2.84,0,1.19-.22,2.21-.65,3.06-.43.85-1,1.5-1.71,1.95-.71.45-1.48.67-2.32.67ZM672.03,47.23c.75,0,1.41-.21,1.99-.64.58-.43,1.04-1.02,1.37-1.78.33-.76.5-1.63.5-2.6,0-.89-.12-1.7-.35-2.41-.23-.71-.61-1.28-1.12-1.69-.51-.41-1.2-.62-2.07-.62-.53,0-1.1.16-1.71.47s-1.24.76-1.89,1.35v6.5c.6.52,1.19.89,1.78,1.1.59.21,1.09.32,1.5.32Z"/><path d="M684.31,53.13v-22.02h.62v22.02h-.62Z"/><path d="M693.65,47.63v-14.52h.74v8.32h.04l7.34-8.32h.94l-4.66,5.32,5.28,9.2h-.88l-4.96-8.62-3.1,3.5v5.12h-.74Z"/><path d="M703.59,47.63l5.18-14.52h.66l5.2,14.52h-.8l-3.02-8.7c-.31-.88-.59-1.72-.86-2.51s-.53-1.64-.8-2.55h-.08c-.27.91-.54,1.76-.81,2.55s-.56,1.63-.87,2.51l-3.06,8.7h-.74ZM705.83,42.47v-.64h6.48v.64h-6.48Z"/><path d="M717.05,47.63v-14.52h.74v14.52h-.74Z"/><path d="M725.89,47.89c-1.07,0-2-.21-2.81-.62s-1.48-.94-2.03-1.58l.5-.52c.53.61,1.17,1.1,1.92,1.47.75.37,1.55.55,2.42.55,1.16,0,2.08-.29,2.77-.86s1.03-1.31,1.03-2.22c0-.65-.12-1.17-.37-1.56-.25-.39-.57-.7-.97-.95-.4-.25-.85-.48-1.34-.69l-2.22-1c-.41-.19-.85-.42-1.31-.7s-.85-.65-1.17-1.11c-.32-.46-.48-1.04-.48-1.75s.18-1.32.54-1.84c.36-.52.85-.93,1.47-1.22.62-.29,1.32-.44,2.11-.44.88,0,1.66.17,2.33.51.67.34,1.22.74,1.63,1.21l-.46.5c-.41-.45-.91-.82-1.5-1.1s-1.25-.42-2-.42c-1.01,0-1.83.25-2.44.74s-.92,1.15-.92,1.98c0,.6.14,1.09.42,1.47.28.38.62.68,1.02.9.4.22.77.41,1.1.57l2.22,1c.55.24,1.05.52,1.52.83s.84.71,1.13,1.18c.29.47.43,1.08.43,1.83s-.19,1.39-.56,1.97-.9,1.04-1.58,1.37c-.68.33-1.48.5-2.4.5Z"/><path d="M736.27,47.63v-13.86h-4.68v-.66h10.14v.66h-4.68v13.86h-.78Z"/></g></svg>