<?xml version="1.0" encoding="UTF-8"?>
<svg id="_레이어_1" data-name="레이어 1" xmlns="http://www.w3.org/2000/svg" viewBox="0 0 408.8 91.05">
  <defs>
    <style>
      .cls-1 {
        fill: #231815;
      }
    </style>
  </defs>
  <g>
    <path class="cls-1" d="M37.21,86.37H0V0h37.21c5.35.08,9.8.7,13.36,1.88,6.05,1.99,10.96,5.64,14.71,10.96,3.01,4.3,5.06,8.95,6.15,13.95,1.09,5,1.64,9.77,1.64,14.3,0,11.48-2.31,21.21-6.91,29.18-6.25,10.74-15.9,16.11-28.95,16.11ZM50.62,22.03c-2.77-4.69-8.26-7.03-16.46-7.03h-16.64v56.37h16.64c8.52,0,14.45-4.2,17.81-12.6,1.84-4.61,2.75-10.1,2.75-16.46,0-8.79-1.37-15.55-4.1-20.27Z"/>
    <path class="cls-1" d="M84.71,29.41c4.41-5.62,11.99-8.44,22.73-8.44,6.99,0,13.2,1.39,18.63,4.16,5.43,2.77,8.14,8.01,8.14,15.7v29.3c0,2.03.04,4.49.12,7.38.12,2.19.45,3.67,1,4.45.55.78,1.37,1.43,2.46,1.93v2.46h-18.16c-.51-1.29-.86-2.5-1.05-3.63-.2-1.13-.35-2.42-.47-3.87-2.31,2.5-4.96,4.63-7.97,6.39-3.59,2.07-7.66,3.11-12.19,3.11-5.78,0-10.56-1.65-14.33-4.95-3.77-3.3-5.65-7.98-5.65-14.03,0-7.85,3.03-13.54,9.08-17.05,3.32-1.91,8.2-3.28,14.65-4.1l5.68-.7c3.09-.39,5.29-.88,6.62-1.46,2.38-1.02,3.57-2.6,3.57-4.75,0-2.62-.91-4.42-2.72-5.42s-4.48-1.49-8-1.49c-3.95,0-6.74.98-8.38,2.93-1.17,1.45-1.95,3.4-2.34,5.86h-16.11c.35-5.59,1.91-10.18,4.69-13.77ZM97.14,74.3c1.56,1.29,3.48,1.93,5.74,1.93,3.59,0,6.9-1.05,9.93-3.16,3.03-2.11,4.6-5.96,4.72-11.54v-6.21c-1.05.66-2.12,1.2-3.19,1.61-1.07.41-2.55.79-4.42,1.14l-3.75.7c-3.52.62-6.04,1.39-7.56,2.29-2.58,1.52-3.87,3.89-3.87,7.09,0,2.85.8,4.9,2.4,6.15Z"/>
    <path class="cls-1" d="M147.4,0h18.05v70.84h42.77v15.53h-60.82V0Z"/>
    <path class="cls-1" d="M216.29,0h17.93v86.37h-17.93V0Z"/>
  </g>
  <g>
    <path class="cls-1" d="M262.2,21.05h-7.44V3.78h7.44c1.07.02,1.96.14,2.67.38,1.21.4,2.19,1.13,2.94,2.19.6.86,1.01,1.79,1.23,2.79s.33,1.95.33,2.86c0,2.3-.46,4.24-1.38,5.84-1.25,2.15-3.18,3.22-5.79,3.22ZM264.88,8.18c-.55-.94-1.65-1.41-3.29-1.41h-3.33v11.27h3.33c1.7,0,2.89-.84,3.56-2.52.37-.92.55-2.02.55-3.29,0-1.76-.27-3.11-.82-4.05Z"/>
    <path class="cls-1" d="M272.27,15.17c0,.67.09,1.31.26,1.91.18.6.44,1.12.78,1.56.34.44.78.79,1.31,1.06.53.26,1.14.4,1.82.4.94,0,1.75-.25,2.42-.74.67-.5,1.12-1.2,1.34-2.11h1.61c-.18.59-.41,1.14-.7,1.64-.29.5-.65.94-1.08,1.32s-.94.67-1.54.88c-.59.21-1.28.31-2.06.31-.99,0-1.85-.17-2.57-.5-.72-.34-1.31-.8-1.78-1.38-.46-.58-.81-1.27-1.03-2.06-.22-.79-.34-1.64-.34-2.56s.13-1.77.4-2.57.64-1.5,1.13-2.1c.49-.6,1.08-1.07,1.79-1.42.7-.34,1.5-.52,2.4-.52,1.71,0,3.06.59,4.03,1.76.98,1.18,1.46,2.88,1.44,5.12h-9.65ZM280.39,13.97c0-.61-.08-1.18-.25-1.72s-.42-1-.74-1.39c-.33-.39-.74-.7-1.24-.94-.5-.23-1.06-.35-1.7-.35s-1.2.12-1.69.36c-.49.24-.9.56-1.25.96-.34.4-.62.86-.83,1.39s-.34,1.09-.41,1.68h8.11Z"/>
    <path class="cls-1" d="M285.74,21.05h-1.44V3.77h1.44v6.84c.46-.77,1.1-1.35,1.91-1.74.81-.39,1.65-.59,2.53-.59.94,0,1.76.18,2.46.54.7.36,1.27.84,1.73,1.44.46.6.8,1.3,1.02,2.1s.34,1.63.34,2.5c0,.91-.1,1.77-.31,2.57-.21.8-.54,1.49-1,2.08-.46.58-1.04,1.04-1.74,1.38s-1.56.5-2.57.5c-.4,0-.81-.06-1.22-.17s-.82-.27-1.21-.48c-.39-.21-.75-.47-1.08-.78-.33-.31-.6-.68-.8-1.09h-.05v2.18ZM285.74,14.79c0,.75.09,1.45.28,2.1.18.65.45,1.21.8,1.68.35.47.79.84,1.32,1.12.53.27,1.13.41,1.8.41.61,0,1.17-.11,1.68-.32.51-.22.96-.53,1.34-.95.38-.42.68-.92.9-1.52.22-.6.32-1.29.32-2.08.03-.78-.03-1.52-.19-2.2-.16-.68-.42-1.28-.77-1.79-.35-.51-.8-.92-1.36-1.21-.55-.3-1.2-.44-1.93-.44-.66,0-1.24.14-1.76.42-.52.28-.96.66-1.32,1.13-.36.47-.64,1.02-.83,1.66s-.29,1.3-.29,2Z"/>
    <path class="cls-1" d="M298.34,5.91v-2.14h1.58v2.14h-1.58ZM298.41,21.05v-12.43h1.44v12.43h-1.44Z"/>
    <path class="cls-1" d="M308.63,13.8c.27-.03.6-.08.97-.14.38-.06.68-.15.92-.26.24-.11.39-.3.44-.56s.08-.51.08-.73c0-.74-.24-1.34-.71-1.81-.47-.47-1.27-.71-2.39-.71-.5,0-.95.04-1.37.13s-.78.24-1.09.46-.57.5-.77.86c-.2.36-.33.81-.4,1.36h-1.46c.05-.74.22-1.36.5-1.88.29-.52.66-.94,1.12-1.27.46-.33.98-.57,1.58-.72.6-.15,1.24-.23,1.91-.23.62,0,1.21.07,1.76.2.55.14,1.03.35,1.44.65.41.3.73.69.96,1.19.23.5.35,1.1.35,1.82v6.77c0,.56.1.92.3,1.07.2.15.6.12,1.21-.11v1.13c-.11.03-.28.08-.49.14-.22.06-.43.1-.64.1-.22,0-.44-.02-.65-.07-.24-.03-.43-.11-.58-.23s-.26-.26-.35-.43c-.09-.17-.15-.35-.18-.55-.03-.2-.05-.41-.05-.64-.61.67-1.3,1.18-2.09,1.54-.78.35-1.63.53-2.54.53-.54,0-1.07-.07-1.57-.22-.5-.14-.95-.37-1.33-.67-.38-.3-.69-.68-.91-1.12-.22-.44-.34-.96-.34-1.57,0-2.11,1.45-3.36,4.34-3.74l1.99-.26ZM311.06,14.52c-.61.26-1.22.42-1.85.5s-1.25.14-1.87.19c-1.1.08-1.96.33-2.58.74-.62.42-.92,1.05-.92,1.9,0,.38.08.72.23,1,.15.28.35.51.6.7.25.18.54.32.86.41.33.09.66.13,1,.13.58,0,1.14-.07,1.68-.22s1.03-.36,1.45-.66c.42-.3.76-.67,1.02-1.13.26-.46.38-1,.38-1.62v-1.94Z"/>
    <path class="cls-1" d="M316.5,17.16c.22,1.07.63,1.83,1.21,2.27.58.44,1.42.66,2.51.66.53,0,.98-.06,1.37-.19.38-.13.7-.3.95-.52s.44-.46.56-.73c.13-.27.19-.56.19-.86,0-.61-.2-1.06-.59-1.36-.39-.3-.88-.53-1.48-.7s-1.23-.31-1.92-.43-1.33-.3-1.92-.54c-.59-.24-1.08-.58-1.48-1.03-.39-.45-.59-1.08-.59-1.9,0-1.04.38-1.89,1.14-2.56.76-.66,1.84-1,3.23-1s2.44.3,3.28.9c.84.6,1.35,1.6,1.52,3.01h-1.46c-.13-.96-.49-1.64-1.09-2.03-.6-.39-1.36-.59-2.27-.59s-1.61.2-2.09.59c-.48.39-.72.91-.72,1.55,0,.56.2.99.59,1.28.39.3.88.54,1.48.72.59.18,1.23.35,1.92.49.69.14,1.33.35,1.92.61.59.26,1.08.62,1.48,1.07.39.45.59,1.07.59,1.87,0,.59-.13,1.12-.38,1.57-.26.46-.61.84-1.06,1.14-.45.3-.98.53-1.6.68-.62.15-1.29.23-2.03.23s-1.39-.11-1.96-.32c-.57-.22-1.05-.52-1.45-.9s-.71-.83-.94-1.34-.35-1.06-.38-1.66h1.46Z"/>
    <path class="cls-1" d="M327.21,5.91v-2.14h1.58v2.14h-1.58ZM327.28,21.05v-12.43h1.44v12.43h-1.44Z"/>
    <path class="cls-1" d="M333.23,21.05h-1.44v-12.43h1.44v1.73c.58-.61,1.17-1.1,1.79-1.49.62-.38,1.36-.58,2.22-.58.77,0,1.48.13,2.14.4.66.26,1.21.72,1.66,1.38.3.45.48.91.54,1.38.06.47.08.96.08,1.48v8.14h-1.44v-8.11c0-1.12-.25-1.96-.74-2.52-.5-.56-1.32-.84-2.47-.84-.45,0-.86.07-1.22.2s-.7.32-1,.54-.55.48-.76.77-.37.59-.48.91c-.14.4-.23.78-.26,1.15s-.05.77-.05,1.2v6.7Z"/>
    <path class="cls-1" d="M354.14,8.62h1.44v11.23c0,.83-.08,1.63-.25,2.39-.17.76-.47,1.43-.9,2-.43.58-1.02,1.04-1.78,1.38-.75.34-1.72.52-2.9.52-.91,0-1.7-.12-2.35-.35-.66-.23-1.19-.52-1.61-.88-.42-.35-.73-.74-.95-1.16-.22-.42-.33-.82-.35-1.19h1.54c.11.46.29.84.53,1.14.24.3.52.53.85.7.33.17.69.28,1.09.35.4.06.82.1,1.25.1.98,0,1.76-.17,2.35-.5.59-.34,1.04-.78,1.34-1.32.3-.54.5-1.16.59-1.85.09-.69.12-1.39.11-2.11-.46.77-1.1,1.35-1.91,1.74-.81.39-1.65.59-2.53.59-.94,0-1.76-.18-2.46-.54-.7-.36-1.27-.84-1.73-1.44-.46-.6-.8-1.3-1.02-2.1-.22-.8-.34-1.63-.34-2.5,0-.91.1-1.77.31-2.57s.54-1.49,1-2.08,1.04-1.04,1.74-1.38c.7-.34,1.56-.5,2.57-.5.4,0,.81.06,1.22.17.42.11.82.27,1.21.48.39.21.75.47,1.08.79.33.32.6.68.8,1.08h.05v-2.18ZM354.14,14.88c0-.75-.09-1.45-.28-2.1-.18-.65-.45-1.21-.8-1.68-.35-.47-.79-.84-1.32-1.12-.53-.27-1.13-.41-1.8-.41-.61,0-1.17.11-1.68.32-.51.22-.96.53-1.34.95-.38.42-.68.92-.9,1.52-.22.6-.32,1.29-.32,2.08-.03.78.03,1.52.19,2.2.16.68.42,1.28.77,1.79.35.51.8.92,1.34,1.21.54.3,1.19.44,1.94.44.66,0,1.24-.14,1.76-.42.52-.28.96-.66,1.32-1.13.36-.47.64-1.02.83-1.66.19-.63.29-1.3.29-2Z"/>
    <path class="cls-1" d="M364.98,9.66c.88-1.12,2.4-1.69,4.55-1.69,1.4,0,2.64.28,3.73.83s1.63,1.6,1.63,3.14v5.86c0,.41,0,.9.02,1.48.02.44.09.73.2.89s.27.29.49.39v.49h-3.63c-.1-.26-.17-.5-.21-.73s-.07-.48-.09-.77c-.46.5-.99.93-1.59,1.28-.72.41-1.53.62-2.44.62-1.16,0-2.11-.33-2.87-.99s-1.13-1.6-1.13-2.81c0-1.57.61-2.71,1.82-3.41.66-.38,1.64-.66,2.93-.82l1.14-.14c.62-.08,1.06-.18,1.32-.29.48-.2.71-.52.71-.95,0-.52-.18-.88-.54-1.08s-.9-.3-1.6-.3c-.79,0-1.35.2-1.68.59-.23.29-.39.68-.47,1.17h-3.22c.07-1.12.38-2.04.94-2.75ZM367.47,18.64c.31.26.7.39,1.15.39.72,0,1.38-.21,1.99-.63s.92-1.19.94-2.31v-1.24c-.21.13-.42.24-.64.32s-.51.16-.88.23l-.75.14c-.7.12-1.21.28-1.51.46-.52.3-.77.78-.77,1.42,0,.57.16.98.48,1.23Z"/>
    <path class="cls-1" d="M378.86,21.05h-1.44v-12.43h1.44v1.73c.58-.61,1.17-1.1,1.79-1.49.62-.38,1.36-.58,2.22-.58.77,0,1.48.13,2.14.4.66.26,1.21.72,1.66,1.38.3.45.48.91.54,1.38.06.47.08.96.08,1.48v8.14h-1.44v-8.11c0-1.12-.25-1.96-.74-2.52-.5-.56-1.32-.84-2.47-.84-.45,0-.86.07-1.22.2s-.7.32-1,.54-.55.48-.76.77-.37.59-.48.91c-.14.4-.23.78-.26,1.15s-.05.77-.05,1.2v6.7Z"/>
    <path class="cls-1" d="M399.76,3.77h1.44v17.28h-1.44v-2.18h-.05c-.21.42-.48.78-.8,1.09-.33.31-.69.57-1.08.78-.39.21-.8.37-1.21.48s-.82.17-1.22.17c-1.01,0-1.86-.17-2.57-.5-.7-.34-1.28-.8-1.74-1.38s-.79-1.28-1-2.08c-.21-.8-.31-1.66-.31-2.57,0-.86.11-1.7.34-2.5.22-.8.56-1.5,1.02-2.1.46-.6,1.03-1.08,1.73-1.44.7-.36,1.52-.54,2.46-.54.88,0,1.72.2,2.53.59.81.39,1.44.97,1.91,1.74V3.77ZM399.76,14.79c0-.7-.1-1.37-.29-2-.19-.63-.47-1.18-.83-1.66-.36-.47-.8-.85-1.32-1.13-.52-.28-1.11-.42-1.76-.42-.75,0-1.4.15-1.94.44-.54.3-.99.7-1.34,1.21s-.61,1.11-.77,1.79c-.16.68-.22,1.41-.19,2.2,0,.78.11,1.48.32,2.08.22.6.52,1.11.9,1.52s.83.73,1.34.95c.51.22,1.07.32,1.68.32.67,0,1.27-.14,1.8-.41.53-.27.97-.64,1.32-1.12s.62-1.03.8-1.68c.18-.65.28-1.35.28-2.1Z"/>
    <path class="cls-1" d="M254.75,35.78h3.61v14.17h8.55v3.11h-12.16v-17.27Z"/>
    <path class="cls-1" d="M274.43,45.8c.27-.03.6-.08.97-.14.38-.06.68-.15.92-.26.24-.11.39-.3.44-.56s.08-.51.08-.73c0-.74-.24-1.34-.71-1.81-.47-.47-1.27-.71-2.39-.71-.5,0-.95.04-1.37.13s-.78.24-1.09.46-.57.5-.77.86c-.2.36-.33.81-.4,1.36h-1.46c.05-.74.22-1.36.5-1.88.29-.52.66-.94,1.12-1.27.46-.33.98-.57,1.58-.72.6-.15,1.24-.23,1.91-.23.62,0,1.21.07,1.76.2.55.14,1.03.35,1.44.65.41.3.73.69.96,1.19.23.5.35,1.1.35,1.82v6.77c0,.56.1.92.3,1.07.2.15.6.12,1.21-.11v1.13c-.11.03-.28.08-.49.14-.22.06-.43.1-.64.1-.22,0-.44-.02-.65-.07-.24-.03-.43-.11-.58-.23s-.26-.26-.35-.43c-.09-.17-.15-.35-.18-.55-.03-.2-.05-.41-.05-.64-.61.67-1.3,1.18-2.09,1.54-.78.35-1.63.53-2.54.53-.54,0-1.07-.07-1.57-.22-.5-.14-.95-.37-1.33-.67-.38-.3-.69-.68-.91-1.12-.22-.44-.34-.96-.34-1.57,0-2.11,1.45-3.36,4.34-3.74l1.99-.26ZM276.85,46.52c-.61.26-1.22.42-1.85.5s-1.25.14-1.87.19c-1.1.08-1.96.33-2.58.74-.62.42-.92,1.05-.92,1.9,0,.38.08.72.23,1,.15.28.35.51.6.7.25.18.54.32.86.41.33.09.66.13,1,.13.58,0,1.14-.07,1.68-.22s1.03-.36,1.45-.66c.42-.3.76-.67,1.02-1.13.26-.46.38-1,.38-1.62v-1.94Z"/>
    <path class="cls-1" d="M281.36,56.41c.19.03.39.06.59.1.2.03.4.05.61.05.4,0,.73-.13.98-.38.26-.26.47-.56.64-.92s.31-.74.42-1.13c.11-.39.24-.72.38-1l-4.82-12.51h1.61l3.98,10.68,3.98-10.68h1.56l-4.63,12.26c-.29.78-.56,1.49-.83,2.11-.26.62-.54,1.16-.84,1.6-.3.44-.62.78-.98,1.01-.36.23-.79.35-1.28.35-.26,0-.5-.02-.73-.05-.23-.03-.44-.07-.64-.12v-1.37Z"/>
    <path class="cls-1" d="M298.75,35.78h3.59v17.27h-3.59v-17.27Z"/>
    <path class="cls-1" d="M306.44,53.05h-1.44v-12.43h1.44v1.73c.58-.61,1.17-1.1,1.79-1.49.62-.38,1.36-.58,2.22-.58.77,0,1.48.13,2.14.4.66.26,1.21.72,1.66,1.38.3.45.48.91.54,1.38.06.47.08.96.08,1.48v8.14h-1.44v-8.11c0-1.12-.25-1.96-.74-2.52-.5-.56-1.32-.84-2.47-.84-.45,0-.86.07-1.22.2s-.7.32-1,.54-.55.48-.76.77-.37.59-.48.91c-.14.4-.23.78-.26,1.15s-.05.77-.05,1.2v6.7Z"/>
    <path class="cls-1" d="M316.49,41.82v-1.2h1.85v-1.97c0-.99.2-1.78.6-2.35.4-.58,1.08-.86,2.04-.86.22,0,.43,0,.62.02.19.02.38.04.58.07v1.32c-.32-.08-.61-.12-.86-.12-.37,0-.66.07-.86.2-.21.14-.36.32-.46.54-.1.22-.16.48-.18.76-.02.28-.04.56-.04.85v1.54h2.4v1.2h-2.4v11.23h-1.44v-11.23h-1.85Z"/>
    <path class="cls-1" d="M328.76,53.39c-.8-.02-1.55-.16-2.24-.43-.7-.27-1.3-.68-1.82-1.22-.52-.54-.93-1.22-1.24-2.04-.3-.82-.46-1.77-.46-2.86,0-.91.12-1.76.36-2.56.24-.79.6-1.48,1.08-2.08s1.08-1.06,1.8-1.4c.72-.34,1.56-.52,2.52-.52s1.82.17,2.54.52c.72.34,1.32.81,1.8,1.39s.84,1.28,1.07,2.08c.23.8.35,1.66.35,2.57,0,.99-.14,1.89-.41,2.69s-.66,1.49-1.16,2.06-1.11,1.02-1.82,1.33c-.71.31-1.5.47-2.36.47ZM332.98,46.83c0-.74-.08-1.42-.24-2.06-.16-.64-.41-1.2-.74-1.67-.34-.47-.77-.84-1.3-1.12-.53-.27-1.18-.41-1.94-.41s-1.4.15-1.93.44c-.54.3-.97.69-1.31,1.18s-.58,1.05-.74,1.68c-.16.63-.24,1.28-.24,1.96,0,.77.09,1.48.28,2.12.18.65.45,1.2.8,1.67s.79.82,1.32,1.08c.53.26,1.14.38,1.82.38.75,0,1.4-.15,1.93-.44.54-.3.97-.69,1.31-1.19s.58-1.06.74-1.68c.16-.62.24-1.27.24-1.94Z"/>
    <path class="cls-1" d="M338.07,53.05h-1.44v-12.43h1.44v2.33h.05c.4-.99.92-1.68,1.55-2.08.63-.39,1.47-.59,2.51-.59v1.56c-.82-.02-1.49.11-2.02.38-.53.27-.95.64-1.26,1.1s-.53,1.01-.65,1.64c-.12.63-.18,1.29-.18,1.98v6.1Z"/>
    <path class="cls-1" d="M345.2,53.05h-1.44v-12.43h1.44v1.87h.05c.37-.72.9-1.27,1.58-1.64.69-.38,1.44-.56,2.26-.56.58,0,1.06.06,1.46.19.4.13.74.3,1.02.52.28.22.51.47.7.76.18.29.34.6.47.94.42-.82.97-1.42,1.67-1.81.7-.39,1.49-.59,2.39-.59.85,0,1.52.14,2.03.42.5.28.89.65,1.16,1.1s.45.98.54,1.57.13,1.2.13,1.82v7.85h-1.44v-8.59c0-.9-.19-1.6-.56-2.11-.38-.51-1.08-.77-2.1-.77-.53,0-1.04.12-1.52.35-.49.23-.92.59-1.28,1.07-.16.21-.29.45-.4.73-.1.28-.19.57-.25.88-.06.3-.11.61-.13.91-.02.3-.04.58-.04.84v6.7h-1.44v-8.59c0-.9-.19-1.6-.56-2.11-.38-.51-1.08-.77-2.1-.77-.53,0-1.04.12-1.52.35-.49.23-.92.59-1.28,1.07-.16.21-.29.45-.4.73-.1.28-.19.57-.25.88-.06.3-.11.61-.13.91-.02.3-.04.58-.04.84v6.7Z"/>
    <path class="cls-1" d="M369.05,45.8c.27-.03.6-.08.97-.14.38-.06.68-.15.92-.26.24-.11.39-.3.44-.56s.08-.51.08-.73c0-.74-.24-1.34-.71-1.81-.47-.47-1.27-.71-2.39-.71-.5,0-.95.04-1.37.13s-.78.24-1.09.46-.57.5-.77.86c-.2.36-.33.81-.4,1.36h-1.46c.05-.74.22-1.36.5-1.88.29-.52.66-.94,1.12-1.27.46-.33.98-.57,1.58-.72.6-.15,1.24-.23,1.91-.23.62,0,1.21.07,1.76.2.55.14,1.03.35,1.44.65.41.3.73.69.96,1.19.23.5.35,1.1.35,1.82v6.77c0,.56.1.92.3,1.07.2.15.6.12,1.21-.11v1.13c-.11.03-.28.08-.49.14-.22.06-.43.1-.64.1-.22,0-.44-.02-.65-.07-.24-.03-.43-.11-.58-.23s-.26-.26-.35-.43c-.09-.17-.15-.35-.18-.55-.03-.2-.05-.41-.05-.64-.61.67-1.3,1.18-2.09,1.54-.78.35-1.63.53-2.54.53-.54,0-1.07-.07-1.57-.22-.5-.14-.95-.37-1.33-.67-.38-.3-.69-.68-.91-1.12-.22-.44-.34-.96-.34-1.57,0-2.11,1.45-3.36,4.34-3.74l1.99-.26ZM371.48,46.52c-.61.26-1.22.42-1.85.5s-1.25.14-1.87.19c-1.1.08-1.96.33-2.58.74-.62.42-.92,1.05-.92,1.9,0,.38.08.72.23,1,.15.28.35.51.6.7.25.18.54.32.86.41.33.09.66.13,1,.13.58,0,1.14-.07,1.68-.22s1.03-.36,1.45-.66c.42-.3.76-.67,1.02-1.13.26-.46.38-1,.38-1.62v-1.94Z"/>
    <path class="cls-1" d="M380.45,53.1c-.18.03-.41.09-.7.17s-.61.12-.96.12c-.72,0-1.27-.18-1.64-.54-.38-.36-.56-1-.56-1.93v-9.1h-1.75v-1.2h1.75v-3.46h1.44v3.46h2.33v1.2h-2.33v8.52c0,.3,0,.57.02.79.02.22.06.41.14.55.08.14.2.25.37.31.17.06.4.1.71.1.19,0,.39-.02.59-.05s.4-.07.59-.12v1.18Z"/>
    <path class="cls-1" d="M382.3,37.91v-2.14h1.58v2.14h-1.58ZM382.37,53.05v-12.43h1.44v12.43h-1.44Z"/>
    <path class="cls-1" d="M395.69,44.53c-.26-.93-.7-1.65-1.32-2.17-.62-.52-1.42-.78-2.38-.78-.74,0-1.37.15-1.9.46-.53.3-.96.71-1.3,1.21s-.58,1.07-.74,1.7-.24,1.27-.24,1.91.08,1.3.23,1.92c.15.62.4,1.18.73,1.68s.77.89,1.3,1.19c.53.3,1.17.44,1.92.44,1.07,0,1.93-.3,2.58-.89s1.06-1.41,1.24-2.45h1.54c-.13.69-.33,1.32-.61,1.88-.28.57-.64,1.06-1.08,1.46-.44.41-.96.72-1.57.95-.61.22-1.3.34-2.09.34-.99,0-1.85-.17-2.57-.5s-1.31-.8-1.78-1.38c-.46-.58-.81-1.28-1.03-2.08-.22-.8-.34-1.66-.34-2.57,0-.86.12-1.69.37-2.48s.61-1.49,1.09-2.1c.48-.61,1.08-1.09,1.79-1.45.71-.36,1.53-.54,2.46-.54,1.44,0,2.6.34,3.49,1.03.89.69,1.44,1.76,1.67,3.22h-1.46Z"/>
    <path class="cls-1" d="M400.47,49.16c.22,1.07.63,1.83,1.21,2.27.58.44,1.42.66,2.51.66.53,0,.98-.06,1.37-.19s.7-.3.95-.52.44-.46.56-.73c.13-.27.19-.56.19-.86,0-.61-.2-1.06-.59-1.36-.39-.3-.88-.53-1.48-.7s-1.23-.31-1.92-.43c-.69-.12-1.33-.3-1.92-.54-.59-.24-1.08-.58-1.48-1.03-.39-.45-.59-1.08-.59-1.9,0-1.04.38-1.89,1.14-2.56s1.84-1,3.23-1,2.44.3,3.28.9c.84.6,1.35,1.6,1.52,3.01h-1.46c-.13-.96-.49-1.64-1.09-2.03-.6-.39-1.36-.59-2.27-.59s-1.61.2-2.09.59c-.48.39-.72.91-.72,1.55,0,.56.2.99.59,1.28.39.3.88.54,1.48.72.59.18,1.23.35,1.92.49.69.14,1.33.35,1.92.61.59.26,1.08.62,1.48,1.07.39.45.59,1.07.59,1.87,0,.59-.13,1.12-.38,1.57-.26.46-.61.84-1.06,1.14-.45.3-.98.53-1.6.68-.62.15-1.29.23-2.03.23s-1.39-.11-1.96-.32c-.57-.22-1.05-.52-1.45-.9-.4-.38-.71-.83-.94-1.34-.22-.51-.35-1.06-.38-1.66h1.46Z"/>
    <path class="cls-1" d="M254.87,85.05v-17.28h1.63v15.89h9.26v1.39h-10.9Z"/>
    <path class="cls-1" d="M273.11,77.8c.27-.03.6-.08.97-.14.38-.06.68-.15.92-.26.24-.11.39-.3.44-.56s.08-.51.08-.73c0-.74-.24-1.34-.71-1.81-.47-.47-1.27-.71-2.39-.71-.5,0-.95.04-1.37.13s-.78.24-1.09.46-.57.5-.77.86c-.2.36-.33.81-.4,1.36h-1.46c.05-.74.22-1.36.5-1.88.29-.52.66-.94,1.12-1.27.46-.33.98-.57,1.58-.72.6-.15,1.24-.23,1.91-.23.62,0,1.21.07,1.76.2.55.14,1.03.35,1.44.65.41.3.73.69.96,1.19.23.5.35,1.1.35,1.82v6.77c0,.56.1.92.3,1.07.2.15.6.12,1.21-.11v1.13c-.11.03-.28.08-.49.14-.22.06-.43.1-.64.1-.22,0-.44-.02-.65-.07-.24-.03-.43-.11-.58-.23s-.26-.26-.35-.43c-.09-.17-.15-.35-.18-.55-.03-.2-.05-.41-.05-.64-.61.67-1.3,1.18-2.09,1.54-.78.35-1.63.53-2.54.53-.54,0-1.07-.07-1.57-.22-.5-.14-.95-.37-1.33-.67-.38-.3-.69-.68-.91-1.12-.22-.44-.34-.96-.34-1.57,0-2.11,1.45-3.36,4.34-3.74l1.99-.26ZM275.53,78.52c-.61.26-1.22.42-1.85.5s-1.25.14-1.87.19c-1.1.08-1.96.33-2.58.74-.62.42-.92,1.05-.92,1.9,0,.38.08.72.23,1,.15.28.35.51.6.7.25.18.54.32.86.41.33.09.66.13,1,.13.58,0,1.14-.07,1.68-.22s1.03-.36,1.45-.66c.42-.3.76-.67,1.02-1.13.26-.46.38-1,.38-1.62v-1.94Z"/>
    <path class="cls-1" d="M281.75,85.05h-1.44v-17.28h1.44v6.84c.46-.77,1.1-1.35,1.91-1.74.81-.39,1.65-.59,2.53-.59.94,0,1.76.18,2.46.54.7.36,1.27.84,1.73,1.44.46.6.8,1.3,1.02,2.1s.34,1.63.34,2.5c0,.91-.1,1.77-.31,2.57-.21.8-.54,1.49-1,2.08-.46.58-1.04,1.04-1.74,1.38s-1.56.5-2.57.5c-.4,0-.81-.06-1.22-.17s-.82-.27-1.21-.48c-.39-.21-.75-.47-1.08-.78-.33-.31-.6-.68-.8-1.09h-.05v2.18ZM281.75,78.79c0,.75.09,1.45.28,2.1.18.65.45,1.21.8,1.68.35.47.79.84,1.32,1.12.53.27,1.13.41,1.8.41.61,0,1.17-.11,1.68-.32.51-.22.96-.53,1.34-.95.38-.42.68-.92.9-1.52.22-.6.32-1.29.32-2.08.03-.78-.03-1.52-.19-2.2-.16-.68-.42-1.28-.77-1.79-.35-.51-.8-.92-1.36-1.21-.55-.3-1.2-.44-1.93-.44-.66,0-1.24.14-1.76.42-.52.28-.96.66-1.32,1.13-.36.47-.64,1.02-.83,1.66s-.29,1.3-.29,2Z"/>
    <path class="cls-1" d="M301.93,67.05v24h-1.44v-24h1.44Z"/>
    <path class="cls-1" d="M326.48,85.05h-4.64l-5.33-7.55-1.72,1.77v5.78h-3.55v-17.27h3.55v7.11l6.67-7.11h4.66l-7.08,7.11,7.44,10.16Z"/>
    <path class="cls-1" d="M338.02,81.5h-6.36l-1.2,3.55h-3.77l6.16-17.27h4.08l6.12,17.27h-3.91l-1.11-3.55ZM337.01,78.52l-2.16-6.8-2.23,6.8h4.38Z"/>
    <path class="cls-1" d="M344.36,67.78h3.59v17.27h-3.59v-17.27Z"/>
    <path class="cls-1" d="M356.98,82.55c.85,0,1.54-.09,2.07-.28,1.01-.36,1.51-1.03,1.51-2,0-.57-.25-1.01-.75-1.32-.5-.3-1.29-.57-2.36-.81l-1.83-.41c-1.8-.41-3.04-.85-3.73-1.32-1.16-.8-1.75-2.04-1.75-3.74,0-1.55.56-2.83,1.69-3.86s2.78-1.54,4.96-1.54c1.82,0,3.37.48,4.66,1.45s1.96,2.37,2.02,4.2h-3.47c-.06-1.04-.52-1.78-1.36-2.21-.56-.29-1.26-.43-2.1-.43-.93,0-1.67.19-2.23.56s-.83.9-.83,1.57c0,.62.27,1.08.82,1.38.35.2,1.1.44,2.25.71l2.98.71c1.3.31,2.29.73,2.95,1.25,1.03.81,1.55,1.99,1.55,3.53s-.6,2.89-1.81,3.93-2.91,1.56-5.12,1.56-4.02-.51-5.31-1.54-1.93-2.44-1.93-4.24h3.45c.11.79.32,1.38.64,1.77.59.71,1.59,1.07,3.01,1.07Z"/>
    <path class="cls-1" d="M378.67,67.78v3.06h-5.17v14.21h-3.63v-14.21h-5.19v-3.06h13.99Z"/>
  </g>
</svg>